<svg height="480pt" viewBox="-16 0 480 480.00001" width="480pt" xmlns="http://www.w3.org/2000/svg"><path d="m408 48h-32v16h32c13.253906 0 24 10.746094 24 24v232h-80v16h80v24c0 13.253906-10.746094 24-24 24h-368c-13.253906 0-24-10.746094-24-24v-24h80v-16h-80v-232c0-13.253906 10.746094-24 24-24h32v-16h-32c-22.082031.027344-39.9726562 17.917969-40 40v272c.0273438 22.082031 17.917969 39.972656 40 40h118.558594l-5.335938 32h-9.222656c-4.417969 0-8 3.582031-8 8v24h-32v16h240v-16h-32v-24c0-4.417969-3.582031-8-8-8h-9.222656l-5.335938-32h118.558594c22.082031-.027344 39.972656-17.917969 40-40v-272c-.027344-22.082031-17.917969-39.972656-40-40zm-112 416h-144v-16h144zm-17.441406-32h-109.117188l5.335938-32h98.445312zm0 0"/><path d="m280 320h24v16h-24zm0 0"/><path d="m144 320h24v16h-24zm0 0"/><path d="m400 352h16v16h-16zm0 0"/><path d="m112 184c.027344 14.917969 10.359375 27.835938 24.902344 31.144531 1.996094 8.773438 7.625 16.289063 15.480468 20.671875 2 16.785156 16.734376 29.101563 33.609376 28.085938 16.871093-1.011719 30.03125-15 30.007812-31.902344v-104c.035156-16.28125-12.183594-29.988281-28.363281-31.816406-16.179688-1.828125-31.144531 8.800781-34.75 24.679687-16.410157 3.164063-27.28125 18.871094-24.460938 35.34375-10.109375 5.605469-16.394531 16.238281-16.425781 27.792969zm22.542969-12.800781c6 8.035156 15.429687 12.777343 25.457031 12.800781v-16c-8.835938 0-16-7.164062-16-16s7.164062-16 16-16 16 7.164062 16 16h16c-.058594-13.992188-9.21875-26.3125-22.601562-30.398438 3.078124-6.863281 10.515624-10.660156 17.878906-9.117187 7.359375 1.539063 12.65625 7.996094 12.722656 15.515625v104c-.003906 7.238281-4.867188 13.578125-11.859375 15.449219-6.992187 1.875-14.375-1.179688-17.996094-7.449219-3.621093-6.269531-2.582031-14.191406 2.535157-19.3125l-11.304688-11.320312c-2.40625 2.464843-4.398438 5.304687-5.894531 8.410156-4.859375-6.023438-4.601563-14.6875.609375-20.410156l-11.859375-10.734376c-3.082031 3.460938-5.367188 7.558594-6.695313 12-5.222656-2.28125-8.824218-7.183593-9.441406-12.851562-.617188-5.664062 1.84375-11.226562 6.449219-14.582031zm0 0"/><path d="m264 264c16.148438-.050781 29.71875-12.148438 31.617188-28.183594 7.855468-4.382812 13.484374-11.898437 15.480468-20.671875 12.910156-2.882812 22.695313-13.445312 24.578125-26.542969 1.886719-13.09375-4.523437-25.988281-16.101562-32.394531 2.820312-16.472656-8.050781-32.179687-24.460938-35.34375-3.605469-15.878906-18.570312-26.507812-34.75-24.679687-16.179687 1.828125-28.398437 15.535156-28.363281 31.816406v104c0 17.671875 14.328125 32 32 32zm-16-136c.066406-7.519531 5.363281-13.976562 12.722656-15.515625 7.363282-1.542969 14.800782 2.253906 17.878906 9.117187-13.382812 4.085938-22.542968 16.40625-22.601562 30.398438h16c0-8.835938 7.164062-16 16-16s16 7.164062 16 16-7.164062 16-16 16v16c10.027344-.023438 19.457031-4.765625 25.457031-12.800781 4.605469 3.355469 7.066407 8.917969 6.449219 14.582031-.617188 5.667969-4.21875 10.570312-9.441406 12.851562-1.328125-4.441406-3.609375-8.535156-6.6875-12l-11.867188 10.734376c5.214844 5.71875 5.472656 14.382812.609375 20.402343-1.5-3.101562-3.488281-5.9375-5.894531-8.402343l-11.3125 11.320312c5.121094 5.121094 6.164062 13.042969 2.542969 19.316406-3.621094 6.269532-11.003907 9.328125-17.996094 7.453125-6.996094-1.875-11.859375-8.214843-11.859375-15.457031zm0 0"/><path d="m104.6875 110.976562c-4.617188 8.460938-8.316406 17.390626-11.03125 26.640626l-38.976562 6.496093c-3.855469.644531-6.679688 3.980469-6.679688 7.886719v48c0 3.90625 2.824219 7.242188 6.679688 7.886719l38.976562 6.496093c2.714844 9.25 6.414062 18.179688 11.03125 26.640626l-22.960938 32.152343c-2.269531 3.179688-1.914062 7.539063.847657 10.304688l33.945312 33.945312c2.765625 2.761719 7.125 3.117188 10.304688.847657l32.152343-22.960938c8.460938 4.617188 17.390626 8.316406 26.640626 11.03125l6.496093 38.976562c.644531 3.855469 3.980469 6.679688 7.886719 6.679688h48c3.90625 0 7.242188-2.824219 7.886719-6.679688l6.496093-38.976562c9.25-2.714844 18.179688-6.414062 26.640626-11.03125l32.144531 22.960938c3.183593 2.277343 7.542969 1.917968 10.3125-.847657l33.945312-33.945312c2.761719-2.765625 3.117188-7.125.847657-10.304688l-22.960938-32.152343c4.617188-8.460938 8.3125-17.390626 11.03125-26.640626l38.96875-6.496093c3.855469-.640625 6.6875-3.976563 6.6875-7.886719v-48c0-3.910156-2.832031-7.246094-6.6875-7.886719l-38.96875-6.511719c-2.71875-9.25-6.414062-18.179687-11.03125-26.640624l22.960938-32.152344c2.269531-3.179688 1.914062-7.539063-.847657-10.304688l-33.945312-33.929687c-2.769531-2.765625-7.128907-3.125-10.3125-.847657l-32.144531 22.960938c-8.453126-4.617188-17.378907-8.316406-26.625-11.03125l-6.496094-38.976562c-.644532-3.859376-3.988282-6.6875005-7.902344-6.679688h-48c-3.90625 0-7.242188 2.824219-7.886719 6.679688l-6.511719 38.976562c-9.25 2.714844-18.179687 6.414062-26.640624 11.03125l-32.152344-22.960938c-3.179688-2.269531-7.539063-1.914062-10.304688.847657l-33.945312 33.945312c-2.761719 2.765625-3.121094 7.125-.847656 10.304688zm18.351562-60.296874 30.808594 22.007812c2.589844 1.847656 6.023438 1.984375 8.753906.351562 9.964844-5.949218 20.742188-10.417968 32-13.253906 3.078126-.78125 5.40625-3.3125 5.925782-6.449218l6.25-37.335938h34.445312l6.226563 37.335938c.519531 3.136718 2.851562 5.671874 5.933593 6.449218 11.257813 2.835938 22.039063 7.300782 32 13.253906 2.730469 1.636719 6.171876 1.5 8.761719-.351562l30.800781-22.007812 24.359376 24.359374-22 30.808594c-1.847657 2.585938-1.992188 6.023438-.359376 8.753906 5.957032 9.960938 10.425782 20.742188 13.261719 32 .78125 3.078126 3.3125 5.40625 6.449219 5.925782l37.34375 6.25v34.445312l-37.335938 6.226563c-3.136718.519531-5.667968 2.84375-6.449218 5.925781-2.835938 11.257812-7.304688 22.039062-13.261719 32-1.628906 2.730469-1.488281 6.167969.359375 8.753906l22 30.808594-24.359375 24.359375-30.792969-21.984375c-2.597656-1.871094-6.058594-2.011719-8.800781-.359375-9.960937 5.957031-20.742187 10.425781-32 13.261719-3.085937.777344-5.414063 3.3125-5.933594 6.449218l-6.203125 37.335938h-34.445312l-6.226563-37.335938c-.519531-3.136718-2.84375-5.667968-5.925781-6.449218-11.253906-2.835938-22.035156-7.304688-32-13.253906-2.730469-1.632813-6.164062-1.496094-8.753906.351562l-30.832032 22.007812-24.359374-24.359374 22.007812-30.808594c1.847656-2.589844 1.984375-6.023438.351562-8.753906-5.949218-9.964844-10.417968-20.742188-13.253906-32-.78125-3.078126-3.3125-5.40625-6.449218-5.925782l-37.335938-6.25v-34.445312l37.335938-6.226563c3.136718-.519531 5.667968-2.84375 6.449218-5.925781 2.835938-11.253906 7.304688-22.035156 13.253906-32 1.632813-2.730469 1.496094-6.164062-.351562-8.753906l-22.007812-30.832032zm0 0"/></svg>