<svg width="552" height="766" viewBox="0 0 552 766" fill="none" xmlns="http://www.w3.org/2000/svg">
<circle cx="170" cy="162.5" r="3.5" fill="#B5002E"/>
<ellipse cx="191" cy="233" rx="7.5" ry="7" fill="#B5002E"/>
<ellipse cx="311" cy="410" rx="5.5" ry="5" fill="#B5002E"/>
<ellipse cx="344" cy="507" rx="7.5" ry="7" fill="#B5002E"/>
<ellipse cx="363" cy="615" rx="4.5" ry="4" fill="#B5002E"/>
<ellipse cx="329" cy="563" rx="7.5" ry="7" fill="#B5002E"/>
<ellipse cx="369" cy="317" rx="7.5" ry="7" fill="#B5002E"/>
<ellipse cx="184" cy="112" rx="7.5" ry="7" fill="#B5002E"/>
<path d="M149.5 101C149.5 104.866 146.142 108 142 108C137.858 108 134.5 104.866 134.5 101C134.5 97.134 137.858 94 142 94C146.142 94 149.5 97.134 149.5 101Z" fill="#B5002E"/>
<path d="M205 87C205 90.866 201.642 94 197.5 94C193.358 94 190 90.866 190 87C190 83.134 193.358 80 197.5 80C201.642 80 205 83.134 205 87Z" fill="#B5002E"/>
<ellipse cx="254" cy="112" rx="7.5" ry="7" fill="#B5002E"/>
<ellipse cx="319" cy="142" rx="7.5" ry="7" fill="#B5002E"/>
<ellipse cx="359.5" cy="120.5" rx="4" ry="3.5" fill="#B5002E"/>
<ellipse cx="319" cy="98" rx="7.5" ry="7" fill="#B5002E"/>
<circle cx="365.5" cy="175" r="3" fill="#B5002E"/>
<circle cx="313.5" cy="193" r="4" fill="#B5002E"/>
<ellipse cx="344" cy="198" rx="7.5" ry="7" fill="#B5002E"/>
<circle cx="336.5" cy="267" r="7" fill="#B5002E"/>
<ellipse cx="246" cy="207" rx="9.5" ry="9" fill="#B5002E"/>
<ellipse cx="273" cy="336" rx="7.5" ry="7" fill="#B5002E"/>
<ellipse cx="359" cy="407" rx="8.5" ry="8" fill="#B5002E"/>
<path d="M168 160L245.5 207L273.5 334L355.5 403.5L379.5 500.5" stroke="#B5002E"/>
<path d="M359.5 407L338.5 265L245.5 206L182 112.5L196.5 88.5L255 112.5L313.5 192.5L344 198L387.5 277.5" stroke="#B5002E"/>
<path d="M170.5 160.5L184.5 111.5H252.5M252.5 111.5L247 208.5L313.5 194.5L339 267.5L274.5 335.5L344 194.5L252.5 111.5Z" stroke="#B5002E"/>
<path d="M345.5 198.5L358.5 119.5L318.5 142V98M318.5 98L253.5 111.5L272.5 335L364.5 175.5L340.5 198.5L322.5 142L311.5 194L318.5 98Z" stroke="#B5002E"/>
<path d="M170 160L191 232L273 337L311.5 412L337.5 268L371 317.5L359 404.5L392.5 428L366 175.5L359 119.5L319.5 98L392.5 75" stroke="#B5002E"/>
<path d="M189 233L247 208L319.5 98.5" stroke="#B5002E"/>
<path d="M359.5 120L380 84" stroke="#B5002E"/>
<path d="M359.5 406.5L311.5 411L370.5 316L343.5 197.5L388.5 78" stroke="#B5002E"/>
<path d="M310.5 410L343 508M343 508L329 562.5M343 508L359 405L408 459M343 508L408 459M343 508L363 616.5M329 562.5L363 616.5M329 562.5L408 459M329 562.5L374.5 692.5M363 616.5L374.5 692.5M374.5 692.5L408 459" stroke="#B5002E"/>
<path d="M169.5 162L142.5 102.5M142.5 102.5L118 75H169.5M142.5 102.5L186 109.5L169.5 75M142.5 102.5L169.5 75" stroke="#B5002E"/>
</svg>
