 <svg version="1.0" xmlns="http://www.w3.org/2000/svg" width="700.000000pt" height="700.000000pt" viewBox="0 0 700.000000 700.000000" preserveAspectRatio="xMidYMid meet">
<metadata>
Created by potrace 1.12, written by Peter Selinger 2001-2015
</metadata>
<g transform="translate(0.000000,700.000000) scale(0.100000,-0.100000)" fill="#000000" stroke="none">
<path d="M1735 6044 c-253 -129 -689 -353 -970 -496 -280 -142 -516 -265 -523
-272 -7 -7 -55 -179 -107 -383 l-95 -370 51 -144 c115 -324 233 -660 269 -764
123 -354 222 -631 229 -638 8 -8 168 0 516 24 72 4 189 11 260 15 l130 6 183
-141 c101 -78 194 -148 205 -156 12 -7 141 -54 287 -103 l265 -90 240 -11
c132 -6 383 -11 557 -11 l318 0 147 -293 146 -292 18 -145 c17 -137 27 -218
49 -407 16 -133 28 -237 50 -411 11 -90 20 -178 20 -196 0 -18 3 -35 6 -39 3
-3 113 75 244 173 l237 178 8 134 c4 73 11 203 14 288 l6 155 135 21 c517 81
615 96 698 110 l94 16 281 181 c155 99 386 247 512 328 l230 147 258 431 259
430 -11 143 c-6 79 -18 229 -26 333 -9 105 -19 249 -24 322 l-9 132 -217 288
c-207 274 -229 300 -474 546 -141 142 -353 353 -472 468 l-217 209 -148 44
c-82 25 -266 79 -409 121 -493 145 -630 186 -712 210 -60 19 -123 28 -240 35
-87 6 -261 17 -388 25 -338 22 -509 33 -710 45 -99 6 -252 15 -340 20 -88 5
-207 12 -265 15 l-105 5 -460 -236z m745 176 c96 -6 254 -15 350 -20 96 -6
276 -17 400 -25 124 -8 295 -19 380 -24 85 -6 240 -15 345 -22 l189 -11 626
-185 c344 -101 647 -191 674 -200 45 -14 97 -62 498 -456 l449 -440 227 -301
226 -301 12 -140 c7 -77 22 -279 35 -448 22 -297 22 -310 5 -342 -12 -21 -24
-31 -34 -29 -30 7 -1322 104 -1382 104 -72 0 -99 -19 -77 -54 7 -11 229 -204
492 -427 264 -223 480 -410 482 -415 2 -5 -81 -63 -184 -129 -103 -66 -318
-204 -477 -307 -160 -103 -294 -184 -298 -180 -4 4 -49 95 -99 202 -102 217
-122 250 -149 250 -11 0 -36 -15 -57 -33 -35 -30 -430 -485 -465 -535 -11 -17
-36 -28 -88 -40 -111 -26 -110 -23 -123 -291 -6 -121 -14 -221 -18 -221 -5 0
-45 47 -89 105 -68 87 -86 105 -108 105 -17 0 -32 -8 -41 -21 -7 -12 -35 -121
-61 -243 -68 -310 -72 -327 -84 -323 -13 4 -27 89 -61 380 -28 240 -45 386
-71 597 l-16 135 -150 298 c-83 164 -158 301 -167 306 -9 4 -73 11 -143 14
-97 5 -137 11 -165 26 -106 54 -855 381 -873 381 -30 0 -26 -43 19 -189 21
-69 41 -141 44 -159 7 -33 7 -34 -26 -27 -44 10 -466 154 -497 170 -14 7 -89
62 -165 121 -205 158 -261 194 -298 194 -18 0 -84 -4 -147 -9 -63 -6 -196 -15
-295 -21 -99 -6 -227 -15 -284 -21 -67 -6 -108 -6 -114 0 -6 6 -65 167 -132
358 -67 191 -186 529 -264 751 l-141 403 85 341 c48 188 90 350 96 359 10 19
92 62 929 489 283 144 629 321 768 392 234 119 256 129 295 124 23 -3 121 -11
217 -16z"></path>
<path d="M5433 5528 c-26 -29 -624 -922 -646 -965 -10 -18 -17 -42 -16 -55 0
-13 105 -214 232 -448 185 -337 237 -426 254 -428 13 -2 25 4 31 15 5 10 65
189 132 398 90 280 124 397 127 445 5 74 -51 1016 -62 1043 -10 23 -27 21 -52
-5z"></path>
<path d="M2870 4167 c-166 -95 -487 -298 -510 -322 -24 -26 -25 -33 -34 -244
-12 -289 -4 -327 56 -263 30 32 531 748 565 807 45 78 29 83 -77 22z"></path>
<path d="M3887 3373 c-32 -63 -248 -734 -245 -760 3 -24 8 -28 38 -31 44 -3
705 94 731 108 22 12 24 32 7 63 -17 33 -426 577 -461 615 -38 39 -52 40 -70
5z"></path>
</g>
</svg>