<?xml version="1.0" standalone="no"?>
<!DOCTYPE svg PUBLIC "-//W3C//DTD SVG 20010904//EN"
 "http://www.w3.org/TR/2001/REC-SVG-20010904/DTD/svg10.dtd">
<svg version="1.0" xmlns="http://www.w3.org/2000/svg"
 width="1800.000000pt" height="1800.000000pt" viewBox="0 0 1800.000000 1800.000000"
 preserveAspectRatio="xMidYMid meet">
<metadata>
Created by potrace 1.15, written by Peter Selinger 2001-2017
</metadata>
<g transform="translate(0.000000,1800.000000) scale(0.100000,-0.100000)"
fill="#000000" stroke="none">
<path d="M3125 14865 l-2530 -1293 -47 -183 c-27 -101 -138 -539 -248 -973
l-199 -789 284 -806 c156 -443 385 -1096 510 -1451 279 -791 593 -1685 607
-1724 l11 -28 86 7 c47 4 122 8 166 10 44 1 91 5 105 9 14 3 75 8 135 10 61 2
241 14 400 26 160 12 333 23 385 24 52 2 102 6 110 9 8 4 67 9 130 11 113 5
424 26 669 45 l123 10 520 -398 520 -398 707 -241 706 -241 310 -10 c171 -6
346 -13 390 -16 44 -2 181 -7 305 -10 124 -3 284 -10 355 -15 72 -5 434 -10
805 -10 521 0 677 -3 686 -13 6 -6 180 -347 386 -757 l376 -745 11 -100 c13
-122 49 -432 90 -775 17 -140 33 -273 35 -295 34 -304 227 -1900 231 -1903 2
-3 10 0 17 5 7 5 286 213 619 461 l606 452 7 127 c3 71 9 178 12 238 26 569
35 775 40 925 4 132 9 178 20 186 7 6 48 16 91 22 65 9 792 124 2034 322 l245
39 1316 846 1316 847 658 1096 c361 602 659 1105 662 1117 3 19 -41 656 -68
965 -5 63 -26 327 -45 585 -19 259 -37 497 -40 530 -2 33 -10 118 -15 190 -6
71 -15 134 -19 140 -5 5 -269 357 -589 781 l-580 770 -349 343 c-191 189 -717
709 -1169 1157 l-820 813 -530 156 c-829 245 -1261 372 -1779 525 -264 78
-640 189 -835 247 -366 108 -409 117 -595 127 -172 9 -588 35 -710 45 -60 5
-150 10 -199 11 -49 1 -94 4 -98 6 -5 3 -77 8 -161 11 -83 2 -160 9 -170 14
-10 6 -30 8 -45 4 -15 -3 -130 2 -257 10 -349 24 -538 35 -670 40 -66 3 -136
8 -155 12 -19 3 -44 5 -56 4 -11 -1 -126 5 -255 13 -129 9 -283 18 -344 21
-60 4 -148 10 -195 14 -47 5 -130 9 -185 10 -54 2 -103 5 -108 8 -4 3 -74 7
-155 9 -81 3 -159 10 -175 16 -15 6 -40 8 -57 5 -16 -4 -130 0 -252 8 -256 17
-358 23 -478 29 l-85 5 -2530 -1294z"/>
</g>
</svg>
