<svg id="Layer_5" enable-background="new 0 0 64 64" height="512" viewBox="0 0 64 64" width="512" xmlns="http://www.w3.org/2000/svg"><path d="m38.035 22.842c-.579-.563-1.33-.835-2.117-.841-1.631.044-2.939 1.408-2.918 3.04.013.953-.358 1.898-1 2.664-.636-.761-1-1.701-1-2.705 0-1.654-1.346-3-3-3s-3 1.347-3 3.001c0 2.624.989 5.09 2.776 6.994-1.787 1.858-2.776 4.288-2.776 6.872 0 .858.352 1.693.965 2.291.56.544 1.281.842 2.038.842.026 0 .053-.001.079-.001 1.631-.044 2.939-1.408 2.918-3.04-.013-.953.359-1.898 1-2.664.636.761 1 1.701 1 2.705 0 1.654 1.346 3 3 3s3-1.347 3-3.001c0-2.624-.989-5.09-2.776-6.994 1.787-1.858 2.776-4.288 2.776-6.872 0-.859-.352-1.694-.965-2.291zm-9.035 16.144c.007.544-.429.998-.972 1.013-.321.021-.534-.145-.668-.274-.229-.223-.36-.536-.36-.858 0-2.045.776-3.968 2.179-5.446l1.419 1.419c-1.035 1.155-1.618 2.645-1.598 4.146zm7 1.014c-.551 0-1-.448-1-1 0-1.668-.649-3.236-1.829-4.415l-3.758-3.758c-1.556-1.556-2.413-3.626-2.413-5.827 0-.552.449-1 1-1s1 .448 1 1c0 1.668.649 3.236 1.829 4.415l3.758 3.758c1.556 1.556 2.413 3.626 2.413 5.827 0 .552-.449 1-1 1zm-1.179-9.421-1.419-1.419c1.036-1.155 1.618-2.644 1.598-4.146-.007-.544.429-.998.972-1.013.293-.038.534.144.668.274.229.223.36.535.36.857 0 2.046-.776 3.968-2.179 5.447z"/><path d="m60 17c1.654 0 3-1.346 3-3s-1.346-3-3-3-3 1.346-3 3c0 .161.023.316.048.471l-4.761 2.597c-.578-.736-1.283-1.365-2.08-1.861l8.509-8.508c.39.187.822.301 1.284.301 1.654 0 3-1.346 3-3s-1.346-3-3-3-3 1.346-3 3c0 .462.113.894.301 1.285l-9.044 9.044c-.425-.125-.865-.216-1.316-.269-.065-.553-.188-1.087-.36-1.6l2.965-5.506c.148.023.298.046.454.046 1.654 0 3-1.346 3-3s-1.346-3-3-3-3 1.346-3 3c0 .774.302 1.473.785 2.005l-2.318 4.305c-1.456-2.001-3.809-3.31-6.467-3.31-3.008 0-5.634 1.669-7 4.13-1.366-2.461-3.992-4.13-7-4.13-2.647 0-4.991 1.298-6.448 3.285l-2.327-4.291c.476-.531.775-1.226.775-1.994 0-1.654-1.346-3-3-3s-3 1.346-3 3 1.346 3 3 3c.161 0 .315-.023.469-.047l2.966 5.467c-.182.531-.311 1.084-.378 1.658-.346-.046-.698-.078-1.057-.078-.188 0-.373.015-.558.028l-8.743-8.743c.188-.391.301-.823.301-1.285 0-1.654-1.346-3-3-3s-3 1.346-3 3 1.346 3 3 3c.462 0 .894-.113 1.285-.301l7.843 7.843c-1.032.399-1.963 1-2.737 1.763l-3.437-1.851c.023-.149.046-.298.046-.454 0-1.654-1.346-3-3-3s-3 1.346-3 3 1.346 3 3 3c.773 0 1.473-.302 2.005-.785l3.136 1.689c-.72 1.2-1.141 2.598-1.141 4.096 0 1.881.657 3.608 1.747 4.976-1.734 1.508-2.747 3.683-2.747 6.024 0 2.615 1.286 5.04 3.395 6.529-.254.779-.395 1.608-.395 2.471 0 1.145.246 2.231.681 3.217l-4.688 2.557c-.531-.476-1.225-.774-1.993-.774-1.654 0-3 1.346-3 3s1.346 3 3 3 3-1.346 3-3c0-.161-.023-.316-.048-.471l4.761-2.597c.578.736 1.283 1.365 2.08 1.861l-8.509 8.508c-.39-.188-.822-.301-1.284-.301-1.654 0-3 1.346-3 3s1.346 3 3 3 3-1.346 3-3c0-.462-.113-.894-.301-1.285l9.044-9.044c.425.125.865.216 1.316.269.065.553.188 1.087.36 1.6l-2.965 5.506c-.148-.023-.298-.046-.454-.046-1.654 0-3 1.346-3 3s1.346 3 3 3 3-1.346 3-3c0-.774-.302-1.473-.785-2.005l2.318-4.305c1.456 2.001 3.809 3.31 6.467 3.31 3.008 0 5.634-1.669 7-4.13 1.366 2.461 3.992 4.13 7 4.13 2.632 0 4.964-1.283 6.423-3.251l2.349 4.261c-.475.531-.772 1.224-.772 1.99 0 1.654 1.346 3 3 3s3-1.346 3-3-1.346-3-3-3c-.163 0-.32.023-.476.048l-2.981-5.408c.193-.549.331-1.123.4-1.719.346.047.698.079 1.057.079.188 0 .372-.015.557-.028l8.743 8.743c-.186.391-.3.823-.3 1.285 0 1.654 1.346 3 3 3s3-1.346 3-3-1.346-3-3-3c-.462 0-.894.113-1.285.301l-7.843-7.843c1.032-.399 1.963-1 2.738-1.763l3.437 1.851c-.024.149-.047.298-.047.454 0 1.654 1.346 3 3 3s3-1.346 3-3-1.346-3-3-3c-.773 0-1.473.302-2.005.785l-3.136-1.689c.72-1.2 1.141-2.598 1.141-4.096 0-1.881-.657-3.608-1.747-4.976 1.734-1.508 2.747-3.683 2.747-6.024 0-2.615-1.286-5.04-3.395-6.529.254-.779.395-1.608.395-2.471 0-1.145-.246-2.231-.681-3.217l4.688-2.557c.531.476 1.225.774 1.993.774zm0-14c.551 0 1 .448 1 1s-.449 1-1 1-1-.448-1-1 .449-1 1-1zm-10 0c.551 0 1 .448 1 1s-.449 1-1 1-1-.448-1-1 .449-1 1-1zm-37 1c0-.552.449-1 1-1s1 .448 1 1-.449 1-1 1-1-.448-1-1zm-9 1c-.551 0-1-.448-1-1s.449-1 1-1 1 .448 1 1-.449 1-1 1zm0 46c-.551 0-1-.448-1-1s.449-1 1-1 1 .448 1 1-.449 1-1 1zm0 10c-.551 0-1-.448-1-1s.449-1 1-1 1 .448 1 1-.449 1-1 1zm10 0c-.551 0-1-.448-1-1s.449-1 1-1 1 .448 1 1-.449 1-1 1zm37-1c0 .552-.449 1-1 1s-1-.448-1-1 .449-1 1-1 1 .448 1 1zm9-1c.551 0 1 .448 1 1s-.449 1-1 1-1-.448-1-1 .449-1 1-1zm-56-44c-.551 0-1-.448-1-1s.449-1 1-1 1 .448 1 1-.449 1-1 1zm56 34c.551 0 1 .448 1 1s-.449 1-1 1-1-.448-1-1 .449-1 1-1zm-5-18c0 1.811-.806 3.493-2.184 4.627-1.342-1.016-3.007-1.627-4.816-1.627v2c3.309 0 6 2.691 6 6s-2.691 6-6 6-6-2.691-6-6h-2c0 3.342 2.062 6.209 4.98 7.404-.209 3.12-2.808 5.596-5.98 5.596-3.309 0-6-2.691-6-6h-2c0 3.309-2.691 6-6 6s-6-2.691-6-6 2.691-6 6-6v-2c-4.045 0-7.389 3.02-7.919 6.922-2.873-.444-5.081-2.927-5.081-5.922 0-3.309 2.691-6 6-6v-2c-2.823 0-5.304 1.474-6.729 3.689-1.416-1.128-2.271-2.844-2.271-4.689 0-1.811.806-3.493 2.184-4.627 1.342 1.016 3.007 1.627 4.816 1.627v-2c-3.309 0-6-2.691-6-6s2.691-6 6-6 6 2.691 6 6h2c0-3.342-2.062-6.209-4.98-7.404.209-3.12 2.808-5.596 5.98-5.596 3.309 0 6 2.691 6 6h2c0-3.309 2.691-6 6-6s6 2.691 6 6-2.691 6-6 6v2c4.045 0 7.389-3.02 7.919-6.922 2.873.444 5.081 2.927 5.081 5.922 0 3.309-2.691 6-6 6v2c2.823 0 5.304-1.474 6.729-3.689 1.416 1.128 2.271 2.844 2.271 4.689zm5-18c.551 0 1 .448 1 1s-.449 1-1 1-1-.448-1-1 .449-1 1-1z"/><path d="m48 46c2.206 0 4-1.794 4-4h-2c0 1.103-.897 2-2 2z"/><path d="m23 49h-2c0 2.206 1.794 4 4 4v-2c-1.103 0-2-.897-2-2z"/><path d="m16 18c-2.206 0-4 1.794-4 4h2c0-1.103.897-2 2-2s2 .897 2 2h2c0-2.206-1.794-4-4-4z"/><path d="m39 13v-2c-2.206 0-4 1.794-4 4h2c0-1.103.897-2 2-2z"/><path d="m42 30h2v2h-2z"/><path d="m44 40h2v2h-2z"/><path d="m20 30h2v2h-2z"/><path d="m31 17h2v2h-2z"/><path d="m34 45h2v2h-2z"/></svg>